<svg width="16" height="16" viewBox="0 0 16 16" fill="none" xmlns="http://www.w3.org/2000/svg">
<path d="M8 15.5C6.9625 15.5 5.9875 15.3031 5.075 14.9094C4.1625 14.5156 3.36875 13.9813 2.69375 13.3063C2.01875 12.6313 1.48438 11.8375 1.09063 10.925C0.696875 10.0125 0.5 9.0375 0.5 8C0.5 6.9625 0.696875 5.9875 1.09063 5.075C1.48438 4.1625 2.01875 3.36875 2.69375 2.69375C3.36875 2.01875 4.1625 1.48438 5.075 1.09063C5.9875 0.696875 6.9625 0.5 8 0.5C9.0375 0.5 10.0125 0.696875 10.925 1.09063C11.8375 1.48438 12.6313 2.01875 13.3063 2.69375C13.9813 3.36875 14.5156 4.1625 14.9094 5.075C15.3031 5.9875 15.5 6.9625 15.5 8C15.5 9.0375 15.3031 10.0125 14.9094 10.925C14.5156 11.8375 13.9813 12.6313 13.3063 13.3063C12.6313 13.9813 11.8375 14.5156 10.925 14.9094C10.0125 15.3031 9.0375 15.5 8 15.5ZM7.25 13.9625V12.5C6.8375 12.5 6.48438 12.3531 6.19063 12.0594C5.89687 11.7656 5.75 11.4125 5.75 11V10.25L2.15 6.65C2.1125 6.875 2.07812 7.1 2.04688 7.325C2.01562 7.55 2 7.775 2 8C2 9.5125 2.49687 10.8375 3.49062 11.975C4.48438 13.1125 5.7375 13.775 7.25 13.9625ZM12.425 12.05C12.675 11.775 12.9 11.4781 13.1 11.1594C13.3 10.8406 13.4656 10.5094 13.5969 10.1656C13.7281 9.82187 13.8281 9.46875 13.8969 9.10625C13.9656 8.74375 14 8.375 14 8C14 6.775 13.6594 5.65625 12.9781 4.64375C12.2969 3.63125 11.3875 2.9 10.25 2.45V2.75C10.25 3.1625 10.1031 3.51562 9.80938 3.80937C9.51562 4.10312 9.1625 4.25 8.75 4.25H7.25V5.75C7.25 5.9625 7.17813 6.14062 7.03438 6.28438C6.89063 6.42812 6.7125 6.5 6.5 6.5H5V8H9.5C9.7125 8 9.89062 8.07188 10.0344 8.21563C10.1781 8.35938 10.25 8.5375 10.25 8.75V11H11C11.325 11 11.6188 11.0969 11.8813 11.2906C12.1438 11.4844 12.325 11.7375 12.425 12.05Z" fill="#0059FF"/>
</svg>
