<svg width="27" height="24" viewBox="0 0 27 24" fill="none" xmlns="http://www.w3.org/2000/svg">
<path d="M3.16665 23.8333C2.45623 23.8333 1.84807 23.5804 1.34217 23.0745C0.836264 22.5686 0.583313 21.9604 0.583313 21.25V5.74998C0.583313 5.03956 0.836264 4.4314 1.34217 3.9255C1.84807 3.4196 2.45623 3.16665 3.16665 3.16665H16.2125C16.1264 3.5972 16.0833 4.02776 16.0833 4.45831C16.0833 4.88887 16.1264 5.31942 16.2125 5.74998H3.16665L13.5 12.2083L18.2146 9.26977C18.516 9.54963 18.8443 9.79182 19.1995 9.99633C19.5547 10.2008 19.926 10.3785 20.3135 10.5291L13.5 14.7916L3.16665 8.33331V21.25H23.8333V10.7875C24.3285 10.6798 24.7913 10.5291 25.2219 10.3354C25.6524 10.1416 26.0507 9.90484 26.4166 9.62498V21.25C26.4166 21.9604 26.1637 22.5686 25.6578 23.0745C25.1519 23.5804 24.5437 23.8333 23.8333 23.8333H3.16665ZM22.5416 8.33331C21.4653 8.33331 20.5503 7.95658 19.7969 7.2031C19.0434 6.44963 18.6666 5.5347 18.6666 4.45831C18.6666 3.38192 19.0434 2.46699 19.7969 1.71352C20.5503 0.960049 21.4653 0.583313 22.5416 0.583313C23.618 0.583313 24.533 0.960049 25.2864 1.71352C26.0399 2.46699 26.4166 3.38192 26.4166 4.45831C26.4166 5.5347 26.0399 6.44963 25.2864 7.2031C24.533 7.95658 23.618 8.33331 22.5416 8.33331Z" fill="#1C1B1F"/>
</svg>
