<svg width="26" height="26" viewBox="0 0 26 26" fill="none" xmlns="http://www.w3.org/2000/svg">
<path d="M17.25 22.625L20.75 19.125V22H22V17H17V18.25H19.875L16.375 21.75L17.25 22.625ZM3.25 23.25C2.5625 23.25 1.97396 23.0052 1.48438 22.5156C0.994792 22.026 0.75 21.4375 0.75 20.75V3.25C0.75 2.5625 0.994792 1.97396 1.48438 1.48438C1.97396 0.994792 2.5625 0.75 3.25 0.75H20.75C21.4375 0.75 22.026 0.994792 22.5156 1.48438C23.0052 1.97396 23.25 2.5625 23.25 3.25V11.625C22.8542 11.4375 22.4479 11.276 22.0312 11.1406C21.6146 11.0052 21.1875 10.9062 20.75 10.8437V3.25H3.25V20.75H10.8125C10.875 21.2083 10.974 21.6458 11.1094 22.0625C11.2448 22.4792 11.4063 22.875 11.5938 23.25H3.25ZM3.25 20.75V3.25V10.8437V10.75V20.75ZM5.75 18.25H10.8437C10.9062 17.8125 11.0052 17.3854 11.1406 16.9688C11.276 16.5521 11.4271 16.1458 11.5938 15.75H5.75V18.25ZM5.75 13.25H13.375C14.0417 12.625 14.7865 12.1042 15.6094 11.6875C16.4323 11.2708 17.3125 10.9896 18.25 10.8437V10.75H5.75V13.25ZM5.75 8.25H18.25V5.75H5.75V8.25ZM19.5 25.75C17.7708 25.75 16.2969 25.1406 15.0781 23.9219C13.8594 22.7031 13.25 21.2292 13.25 19.5C13.25 17.7708 13.8594 16.2969 15.0781 15.0781C16.2969 13.8594 17.7708 13.25 19.5 13.25C21.2292 13.25 22.7031 13.8594 23.9219 15.0781C25.1406 16.2969 25.75 17.7708 25.75 19.5C25.75 21.2292 25.1406 22.7031 23.9219 23.9219C22.7031 25.1406 21.2292 25.75 19.5 25.75Z" fill="#1C1B1F"/>
</svg>
