<svg width="506" height="97" viewBox="0 0 506 97" fill="none" xmlns="http://www.w3.org/2000/svg">
<path d="M1.18182 95V86.8182L51.3636 11.9091H0.636364V1.90909H64.8182V10.0909L14.6364 85H65.3636V95H1.18182ZM158.443 48.4545C158.443 58.2727 156.67 66.7576 153.125 73.9091C149.58 81.0606 144.716 86.5758 138.534 90.4545C132.352 94.3333 125.292 96.2727 117.352 96.2727C109.413 96.2727 102.352 94.3333 96.1705 90.4545C89.9886 86.5758 85.125 81.0606 81.5795 73.9091C78.0341 66.7576 76.2614 58.2727 76.2614 48.4545C76.2614 38.6364 78.0341 30.1515 81.5795 23C85.125 15.8485 89.9886 10.3333 96.1705 6.45454C102.352 2.57575 109.413 0.63636 117.352 0.63636C125.292 0.63636 132.352 2.57575 138.534 6.45454C144.716 10.3333 149.58 15.8485 153.125 23C156.67 30.1515 158.443 38.6364 158.443 48.4545ZM147.534 48.4545C147.534 40.3939 146.186 33.5909 143.489 28.0455C140.822 22.5 137.201 18.303 132.625 15.4545C128.08 12.6061 122.989 11.1818 117.352 11.1818C111.716 11.1818 106.61 12.6061 102.034 15.4545C97.4886 18.303 93.8674 22.5 91.1705 28.0455C88.5038 33.5909 87.1705 40.3939 87.1705 48.4545C87.1705 56.5151 88.5038 63.3182 91.1705 68.8636C93.8674 74.4091 97.4886 78.6061 102.034 81.4545C106.61 84.303 111.716 85.7273 117.352 85.7273C122.989 85.7273 128.08 84.303 132.625 81.4545C137.201 78.6061 140.822 74.4091 143.489 68.8636C146.186 63.3182 147.534 56.5151 147.534 48.4545ZM251.216 1.90909V95H240.307L189.58 21.9091H188.67V95H177.398V1.90909H188.307L239.216 75.1818H240.125V1.90909H251.216ZM337.409 31C336.409 27.9394 335.091 25.197 333.455 22.7727C331.848 20.3182 329.924 18.2273 327.682 16.5C325.47 14.7727 322.955 13.4545 320.136 12.5454C317.318 11.6364 314.227 11.1818 310.864 11.1818C305.348 11.1818 300.333 12.6061 295.818 15.4545C291.303 18.303 287.712 22.5 285.045 28.0455C282.379 33.5909 281.045 40.3939 281.045 48.4545C281.045 56.5151 282.394 63.3182 285.091 68.8636C287.788 74.4091 291.439 78.6061 296.045 81.4545C300.652 84.303 305.833 85.7273 311.591 85.7273C316.924 85.7273 321.621 84.5909 325.682 82.3182C329.773 80.0152 332.955 76.7727 335.227 72.5909C337.53 68.3788 338.682 63.4242 338.682 57.7273L342.136 58.4545H314.136V48.4545H349.591V58.4545C349.591 66.1212 347.955 72.7879 344.682 78.4545C341.439 84.1212 336.955 88.5152 331.227 91.6364C325.53 94.7273 318.985 96.2727 311.591 96.2727C303.348 96.2727 296.106 94.3333 289.864 90.4545C283.652 86.5758 278.803 81.0606 275.318 73.9091C271.864 66.7576 270.136 58.2727 270.136 48.4545C270.136 41.0909 271.121 34.4697 273.091 28.5909C275.091 22.6818 277.909 17.6515 281.545 13.5C285.182 9.34849 289.485 6.16667 294.455 3.95454C299.424 1.74242 304.894 0.63636 310.864 0.63636C315.773 0.63636 320.348 1.37878 324.591 2.86363C328.864 4.31818 332.667 6.39393 336 9.0909C339.364 11.7576 342.167 14.9545 344.409 18.6818C346.652 22.3788 348.197 26.4848 349.045 31H337.409ZM365.807 95V86.8182L415.989 11.9091H365.261V1.90909H429.443V10.0909L379.261 85H429.989V95H365.807ZM448.898 95V1.90909H505.08V11.9091H460.17V43.3636H502.17V53.3636H460.17V85H505.807V95H448.898Z" fill="#1E1E1E"/>
</svg>
