<?xml version="1.0" encoding="UTF-8" standalone="no" ?>
<!DOCTYPE svg PUBLIC "-//W3C//DTD SVG 1.1//EN" "http://www.w3.org/Graphics/SVG/1.1/DTD/svg11.dtd">
<svg xmlns="http://www.w3.org/2000/svg" xmlns:xlink="http://www.w3.org/1999/xlink" version="1.1" width="1080" height="1080" viewBox="0 0 1080 1080" xml:space="preserve">
<desc>Created with Fabric.js 5.2.4</desc>
<defs>
</defs>
<rect x="0" y="0" width="100%" height="100%" fill="transparent"></rect>
<g transform="matrix(1 0 0 1 540 540)" id="7193a000-bec7-4349-97b1-a56827e03768"  >
<rect style="stroke: none; stroke-width: 1; stroke-dasharray: none; stroke-linecap: butt; stroke-dashoffset: 0; stroke-linejoin: miter; stroke-miterlimit: 4; fill: rgb(255,255,255); fill-rule: nonzero; opacity: 1; visibility: hidden;" vector-effect="non-scaling-stroke"  x="-540" y="-540" rx="0" ry="0" width="1080" height="1080" />
</g>
<g transform="matrix(1 0 0 1 540 540)" id="11c833db-c788-4571-b3d8-c968edd939a5"  >
</g>
<g transform="matrix(1.55 0 0 1.55 537.54 490.64)"  >
<g style="" vector-effect="non-scaling-stroke"   >
		<g transform="matrix(1.07 0 0 1.07 -278.69 -13.73)" id="path3769"  >
<path style="stroke: none; stroke-width: 1.99992609; stroke-dasharray: none; stroke-linecap: butt; stroke-dashoffset: 0; stroke-linejoin: miter; stroke-miterlimit: 4; fill: rgb(118,240,155); fill-rule: nonzero; opacity: 1;" vector-effect="non-scaling-stroke"  transform=" translate(-113.72, -519.38)" d="M 171.64072 569.53393 L 113.72464 569.53393 L 55.80856299999999 569.53393 L 84.766601 519.37714 L 113.72464 469.2203400000001 L 142.68268 519.37714 z" stroke-linecap="round" />
</g>
		<g transform="matrix(1.07 0 0 1.07 287.14 -12.64)" id="rect3782"  >
<path style="stroke: none; stroke-width: 2; stroke-dasharray: none; stroke-linecap: butt; stroke-dashoffset: 0; stroke-linejoin: miter; stroke-miterlimit: 4; fill: rgb(245,95,95); fill-rule: nonzero; opacity: 1;" vector-effect="non-scaling-stroke"  transform=" translate(-644.19, -520.4)" d="M 594.19143 470.39903 L 594.19143 570.39903 L 694.19143 570.39903 L 694.19143 470.39903000000004 L 594.19143 470.39903000000004 z" stroke-linecap="round" />
</g>
		<g transform="matrix(1.07 0 0 1.07 165.81 26.15)" id="path5373"  >
<circle style="stroke: none; stroke-width: 1.81900001; stroke-dasharray: none; stroke-linecap: butt; stroke-dashoffset: 0; stroke-linejoin: miter; stroke-miterlimit: 4; fill: rgb(245,184,98); fill-rule: nonzero; opacity: 1;" vector-effect="non-scaling-stroke"  cx="0" cy="0" r="12.947398" />
</g>
		<g transform="matrix(0.99 0 0 0.99 -209.42 0.22)" id="path3444"  >
<path style="stroke: none; stroke-width: 1; stroke-dasharray: none; stroke-linecap: butt; stroke-dashoffset: 0; stroke-linejoin: miter; stroke-miterlimit: 4; fill: rgb(75,85,98); fill-rule: nonzero; opacity: 1;" vector-effect="non-scaling-stroke"  transform=" translate(-42.04, -360.78)" d="M 11.369922 331.04859 Q 18.857922000000002 321.54458999999997 31.529922 321.54458999999997 Q 44.201921999999996 321.54458999999997 49.529922 330.90459 Q 57.161922 321.54458999999997 70.265922 321.54458999999997 Q 92.441922 321.54458999999997 92.441922 349.04859 L 92.441922 400.02459 L 70.265922 400.02459 L 70.265922 348.04059 Q 70.265922 338.68059 62.633922000000005 338.68059 Q 57.161922000000004 338.68059 53.84992200000001 342.85659 L 53.84992200000001 400.02459 L 31.817922000000006 400.02459 L 31.817922000000006 348.04059 Q 31.817922000000006 338.68059 24.041922000000007 338.68059 Q 18.857922000000006 338.68059 15.257922000000006 342.85659 L 15.257922000000006 400.02459 L -6.774078099999995 400.02459 L -6.774078099999995 345.88059 L -8.358078099999995 324.42458999999997 L 8.777921900000004 322.26458999999994 L 10.793922000000004 331.04858999999993 L 11.369922000000004 331.04858999999993 z" stroke-linecap="round" />
</g>
		<g transform="matrix(0.99 0 0 0.99 -118.05 1.08)" id="path3446"  >
<path style="stroke: none; stroke-width: 1; stroke-dasharray: none; stroke-linecap: butt; stroke-dashoffset: 0; stroke-linejoin: miter; stroke-miterlimit: 4; fill: rgb(75,85,98); fill-rule: nonzero; opacity: 1;" vector-effect="non-scaling-stroke"  transform=" translate(-134.09, -361.65)" d="M 139.12717 347.60859 Q 139.12717 342.85659 137.11117000000002 340.69659 Q 135.09517000000002 338.39259000000004 129.33517 338.39259000000004 Q 123.57517 338.39259000000004 110.32717000000001 342.56859000000003 L 104.13517000000002 329.03259 Q 109.03117000000002 326.29659000000004 117.67117000000002 323.99259 Q 126.45517000000002 321.54459 134.80717 321.54459 Q 143.30317000000002 321.54459 148.91917 323.56059000000005 Q 154.67917 325.57659000000007 157.12717 329.60859000000005 Q 159.71917000000002 333.49659 160.43917000000002 337.38459000000006 Q 161.30317000000002 341.27259000000004 161.30317000000002 347.17659000000003 L 161.30317000000002 374.24859000000004 Q 161.30317000000002 379.57659 162.31117000000003 382.88859 Q 163.46317000000002 386.20059000000003 167.06317000000004 390.08859 L 154.53517000000005 401.75259 Q 151.22317000000004 400.16859 148.05517000000006 397.00059 Q 145.03117000000006 393.83259 143.59117000000006 391.09659 L 143.01517000000007 391.09659 Q 134.66317000000006 401.75259 121.84717000000006 401.75259 Q 101.11117000000006 401.75259 101.11117000000006 380.29659 Q 101.11117000000006 368.92059 107.59117000000006 363.30458999999996 Q 114.21517000000006 357.68859 126.59917000000006 355.52858999999995 L 139.12717000000006 353.3685899999999 L 139.12717000000006 347.60858999999994 z M 121.99117000000001 377.99259 Q 121.99117000000001 385.04859 129.47917 385.04859 Q 135.23917 385.04859 139.27117 381.01659 L 139.27117 367.48059 Q 130.05517 368.77659 126.02317000000001 371.08059000000003 Q 121.99117000000001 373.24059000000005 121.99117000000001 377.99259 z" stroke-linecap="round" />
</g>
		<g transform="matrix(0.99 0 0 0.99 -57.8 -8.43)" id="path3448"  >
<path style="stroke: none; stroke-width: 1; stroke-dasharray: none; stroke-linecap: butt; stroke-dashoffset: 0; stroke-linejoin: miter; stroke-miterlimit: 4; fill: rgb(75,85,98); fill-rule: nonzero; opacity: 1;" vector-effect="non-scaling-stroke"  transform=" translate(-194.78, -352.07)" d="M 200.82667 322.69659 L 220.26667 322.69659 L 217.67467 338.68059 L 200.82666999999998 338.68059 L 200.82666999999998 371.65659 Q 200.82666999999998 379.00059 202.84266999999997 381.88059 Q 204.85866999999996 384.76059 209.75466999999998 384.76059 Q 211.77066999999997 384.76059 217.96266999999997 383.32059 L 221.85066999999998 396.13658999999996 Q 219.11467 398.29659 212.92266999999998 400.02458999999993 Q 206.87466999999998 401.75258999999994 201.83467 401.75258999999994 Q 187.57867 401.75258999999994 183.11467 394.55258999999995 Q 178.79467 387.20858999999996 178.79467 370.64858999999996 L 178.79467 338.68058999999994 L 167.70667 338.68058999999994 L 169.72267 324.28058999999996 L 179.22666999999998 322.98458999999997 L 180.09067 308.58459 L 200.82666999999998 302.39259 L 200.82666999999998 322.69658999999996 z" stroke-linecap="round" />
</g>
		<g transform="matrix(0.99 0 0 0.99 -3.91 -8.43)" id="path3450"  >
<path style="stroke: none; stroke-width: 1; stroke-dasharray: none; stroke-linecap: butt; stroke-dashoffset: 0; stroke-linejoin: miter; stroke-miterlimit: 4; fill: rgb(75,85,98); fill-rule: nonzero; opacity: 1;" vector-effect="non-scaling-stroke"  transform=" translate(-249.06, -352.07)" d="M 255.10792 322.69659 L 274.54792000000003 322.69659 L 271.95592000000005 338.68059 L 255.10792000000004 338.68059 L 255.10792000000004 371.65659 Q 255.10792000000004 379.00059 257.12392000000006 381.88059 Q 259.1399200000001 384.76059 264.03592000000003 384.76059 Q 266.05192000000005 384.76059 272.24392000000006 383.32059 L 276.13192000000004 396.13658999999996 Q 273.39592000000005 398.29659 267.20392000000004 400.02458999999993 Q 261.15592000000004 401.75258999999994 256.11592 401.75258999999994 Q 241.85992000000002 401.75258999999994 237.39592000000002 394.55258999999995 Q 233.07592000000002 387.20858999999996 233.07592000000002 370.64858999999996 L 233.07592000000002 338.68058999999994 L 221.98792000000003 338.68058999999994 L 224.00392000000002 324.28058999999996 L 233.50792 322.98458999999997 L 234.37192000000002 308.58459 L 255.10792 302.39259 L 255.10792 322.69658999999996 z" stroke-linecap="round" />
</g>
		<g transform="matrix(0.99 0 0 0.99 59.12 1.08)" id="path3452"  >
<path style="stroke: none; stroke-width: 1; stroke-dasharray: none; stroke-linecap: butt; stroke-dashoffset: 0; stroke-linejoin: miter; stroke-miterlimit: 4; fill: rgb(75,85,98); fill-rule: nonzero; opacity: 1;" vector-effect="non-scaling-stroke"  transform=" translate(-312.56, -361.65)" d="M 315.72517 321.54459 Q 330.12516999999997 321.54459 336.89317 329.46459000000004 Q 342.50917 335.94459000000006 343.80517 351.06459000000007 Q 344.23717 357.11259000000007 344.23717 366.18459000000007 L 334.01317 367.62459000000007 L 304.34917 367.62459000000007 Q 304.34917 376.12059000000005 307.51717 380.44059000000004 Q 310.68517 384.61659000000003 318.74917000000005 384.61659000000003 Q 326.9571700000001 384.61659000000003 338.47717000000006 380.44059000000004 L 342.94117000000006 393.97659000000004 Q 329.26117000000005 401.75259000000005 314.42917000000006 401.75259000000005 Q 280.87717000000004 401.75259000000005 280.87717000000004 362.00859 Q 280.87717000000004 343.28859 289.51717 332.48859000000004 Q 298.30117 321.54459 315.72517000000005 321.54459 z M 320.62117 341.99259 Q 319.18117 338.68059 314.14117 338.68059 Q 309.10116999999997 338.68059 306.94117 342.42459 Q 304.78117 346.02459000000005 304.49317 353.36859000000004 L 322.06117 353.36859000000004 Q 322.06117 345.16059 320.62117 341.99259000000006 z" stroke-linecap="round" />
</g>
		<g transform="matrix(0.99 0 0 0.99 124.9 0.22)" id="path3454"  >
<path style="stroke: none; stroke-width: 1; stroke-dasharray: none; stroke-linecap: butt; stroke-dashoffset: 0; stroke-linejoin: miter; stroke-miterlimit: 4; fill: rgb(75,85,98); fill-rule: nonzero; opacity: 1;" vector-effect="non-scaling-stroke"  transform=" translate(-378.82, -360.78)" d="M 373.20142 338.10459 Q 375.36142 330.47258999999997 380.40142 326.00858999999997 Q 385.44142 321.54458999999997 392.06541999999996 321.54458999999997 Q 398.83341999999993 321.54458999999997 404.30541999999997 324.28058999999996 L 399.26541999999995 341.70458999999994 Q 394.80141999999995 340.40858999999995 391.63341999999994 340.40858999999995 Q 386.01741999999996 340.40858999999995 381.40941999999995 344.58458999999993 Q 376.94541999999996 348.7605899999999 376.94541999999996 356.82458999999994 L 376.94541999999996 400.02458999999993 L 354.91342 400.02458999999993 L 354.91342 345.7365899999999 L 353.32941999999997 324.4245899999999 L 370.03342 322.2645899999999 L 372.62541999999996 338.10458999999986 L 373.20142 338.10458999999986 z" stroke-linecap="round" />
</g>
		<g transform="matrix(0.99 0 0 0.99 208.63 0.12)" id="path3457"  >
<path style="stroke: none; stroke-width: 1; stroke-dasharray: none; stroke-linecap: butt; stroke-dashoffset: 0; stroke-linejoin: miter; stroke-miterlimit: 4; fill: rgb(75,85,98); fill-rule: nonzero; opacity: 1;" vector-effect="non-scaling-stroke"  transform=" translate(-0.07, -360.86)" d="M 15.257922 398.72859 Q 15.257922 410.10459 11.369922 415.72059 Q 7.625921900000001 421.33659 -4.614078099999999 428.96859 L -16.710078 416.29659 Q -9.7980781 411.11258999999995 -8.3580781 407.36859 Q -6.7740781000000005 403.62458999999996 -6.7740781000000005 392.96859 L -6.7740781000000005 324.56859 L 15.257922 322.26459 L 15.257922 398.72859 z M 3.4499219000000014 318.08859 Q -8.502078099999999 318.08859 -8.502078099999999 304.69659 Q -8.502078099999999 299.51259 -5.334078099999998 296.20059000000003 Q -2.1660780999999982 292.74459 5.033921900000002 292.74459 Q 16.841922 292.74459 16.841922 306.28059 Q 16.841922 311.46459000000004 13.673922000000001 314.77659 Q 10.505922000000002 318.08859 3.4499219000000014 318.08859 z" stroke-linecap="round" />
</g>
		<g transform="matrix(0.99 0 0 0.99 263.01 0.9)" id="path3459"  >
<path style="stroke: none; stroke-width: 1; stroke-dasharray: none; stroke-linecap: butt; stroke-dashoffset: 0; stroke-linejoin: miter; stroke-miterlimit: 4; fill: rgb(75,85,98); fill-rule: nonzero; opacity: 1;" vector-effect="non-scaling-stroke"  transform=" translate(-54.85, -361.65)" d="M 26.627172 345.01659 Q 26.627172 334.50459 34.979172000000005 328.02459 Q 43.33117200000001 321.54458999999997 56.003172000000006 321.54458999999997 Q 68.675172 321.54458999999997 75.73117200000002 327.44858999999997 Q 82.78717200000001 333.20858999999996 83.93917200000001 343.72058999999996 L 64.64317200000002 347.46459 Q 63.63517200000002 337.67259 54.995172000000025 337.67259 Q 51.827172000000026 337.67259 49.81117200000003 339.54459 Q 47.79517200000003 341.41659000000004 47.79517200000003 343.57659 Q 47.79517200000003 345.73659000000004 48.22717200000003 346.88859 Q 48.80317200000003 348.04059 49.811172000000035 349.04859000000005 Q 50.963172000000036 350.05659 51.97117200000004 350.92059000000006 Q 53.12317200000004 351.6405900000001 54.99517200000004 352.50459000000006 Q 57.01117200000004 353.36859000000004 58.45117200000004 353.94459000000006 Q 60.46717200000004 355.09659000000005 67.66717200000004 358.12059000000005 Q 74.86717200000004 361.00059000000005 79.76317200000004 365.60859000000005 Q 84.65917200000004 370.21659000000005 84.65917200000004 379.00059000000005 Q 84.65917200000004 387.78459000000004 76.59517200000005 394.84059 Q 68.67517200000005 401.75259 54.13117200000005 401.75259 Q 39.58717200000005 401.75259 25.043172000000048 393.25659 L 32.96317200000005 379.00059 Q 47.36317200000005 385.19259 54.13117200000005 385.19259 Q 57.44317200000005 385.19259 59.60317200000005 383.75259 Q 61.90717200000005 382.31259 61.90717200000005 379.43259 Q 61.90717200000005 376.40859 58.73917200000005 374.53659 Q 55.427172000000056 372.52058999999997 53.699172000000054 371.80059 Q 40.019172000000054 366.47259 32.96317200000006 360.71259 Q 26.62717200000006 355.52858999999995 26.62717200000006 345.01658999999995 z" stroke-linecap="round" />
</g>
</g>
</g>
</svg>